<svg id="Layer_1" data-name="Layer 1" xmlns="http://www.w3.org/2000/svg" viewBox="0 0 96 200"><defs><style>.cls-1{fill:#2790f3;}.cls-2{fill:#cdcdcd;}.cls-15,.cls-3{fill:#fff;}.cls-4,.cls-7{fill:#87b7d8;}.cls-13,.cls-4,.cls-7{stroke:#4789bf;}.cls-11,.cls-12,.cls-13,.cls-15,.cls-4,.cls-5,.cls-8{stroke-miterlimit:10;}.cls-11,.cls-12,.cls-13,.cls-5,.cls-8{fill:none;}.cls-15,.cls-5{stroke:#c3c3c3;}.cls-6{fill:#c3c3c3;}.cls-7{stroke-linejoin:round;}.cls-8{stroke:#2790f3;}.cls-9{fill:#38833a;}.cls-10{fill:#e1302b;}.cls-11{stroke:#e1302b;stroke-width:2px;}.cls-12{stroke:#005eb7;stroke-linecap:round;stroke-width:3px;}.cls-14{fill:#4789bf;}</style></defs><title>icons</title><rect class="cls-1" x="34" y="34" width="12" height="12" rx="2" ry="2"/><rect class="cls-1" x="50" y="34" width="12" height="12" rx="2" ry="2"/><rect class="cls-1" x="66" y="34" width="12" height="12" rx="2" ry="2"/><path class="cls-2" d="M12,35a1,1,0,0,1,1,1v8a1,1,0,0,1-1,1H4a1,1,0,0,1-1-1V36a1,1,0,0,1,1-1h8m0-1H4a2,2,0,0,0-2,2v8a2,2,0,0,0,2,2h8a2,2,0,0,0,2-2V36a2,2,0,0,0-2-2Z"/><path class="cls-2" d="M28,35a1,1,0,0,1,1,1v8a1,1,0,0,1-1,1H20a1,1,0,0,1-1-1V36a1,1,0,0,1,1-1h8m0-1H20a2,2,0,0,0-2,2v8a2,2,0,0,0,2,2h8a2,2,0,0,0,2-2V36a2,2,0,0,0-2-2Z"/><rect class="cls-3" x="69" y="39" width="6" height="2"/><rect class="cls-1" x="82" y="34" width="12" height="12" rx="2" ry="2"/><rect class="cls-3" x="85" y="39" width="6" height="2"/><rect class="cls-4" x="16.5" y="19.5" width="15" height="11" rx="1" ry="1"/><path class="cls-4" d="M18.5,17.5h3a1,1,0,0,1,1,1v1a0,0,0,0,1,0,0h-5a0,0,0,0,1,0,0v-1A1,1,0,0,1,18.5,17.5Z"/><polygon class="cls-5" points="29.5 15.5 18.5 15.5 18.5 0.5 26 0.5 29.5 4.5 29.5 15.5"/><rect class="cls-6" x="25" y="1" width="1" height="5"/><rect class="cls-6" x="26" y="5" width="3" height="1"/><rect class="cls-4" x="0.5" y="19.5" width="15" height="11" rx="1" ry="1"/><path class="cls-4" d="M2.5,17.5h3a1,1,0,0,1,1,1v1a0,0,0,0,1,0,0h-5a0,0,0,0,1,0,0v-1A1,1,0,0,1,2.5,17.5Z"/><polygon class="cls-5" points="13.5 15.5 2.5 15.5 2.5 0.5 10 0.5 13.5 4.5 13.5 15.5"/><rect class="cls-6" x="9" y="1" width="1" height="5"/><rect class="cls-6" x="10" y="5" width="3" height="1"/><rect class="cls-4" x="48.5" y="19.5" width="15" height="11" rx="1" ry="1"/><path class="cls-4" d="M50.5,17.5h3a1,1,0,0,1,1,1v1a0,0,0,0,1,0,0h-5a0,0,0,0,1,0,0v-1A1,1,0,0,1,50.5,17.5Z"/><polygon class="cls-5" points="61.5 15.5 50.5 15.5 50.5 0.5 58 0.5 61.5 4.5 61.5 15.5"/><rect class="cls-6" x="57" y="1" width="1" height="5"/><rect class="cls-6" x="58" y="5" width="3" height="1"/><rect class="cls-4" x="32.5" y="19.5" width="15" height="11" rx="1" ry="1"/><path class="cls-4" d="M34.5,17.5h3a1,1,0,0,1,1,1v1a0,0,0,0,1,0,0h-5a0,0,0,0,1,0,0v-1A1,1,0,0,1,34.5,17.5Z"/><polygon class="cls-5" points="45.5 15.5 34.5 15.5 34.5 0.5 42 0.5 45.5 4.5 45.5 15.5"/><rect class="cls-6" x="41" y="1" width="1" height="5"/><rect class="cls-6" x="42" y="5" width="3" height="1"/><rect class="cls-4" x="80.5" y="19.5" width="15" height="11" rx="1" ry="1"/><rect class="cls-7" x="35.5" y="160.5" width="10" height="13"/><path class="cls-4" d="M82.5,17.5h3a1,1,0,0,1,1,1v1a0,0,0,0,1,0,0h-5a0,0,0,0,1,0,0v-1A1,1,0,0,1,82.5,17.5Z"/><polygon class="cls-5" points="93.5 15.5 82.5 15.5 82.5 0.5 90 0.5 93.5 4.5 93.5 15.5"/><rect class="cls-6" x="89" y="1" width="1" height="5"/><rect class="cls-6" x="90" y="5" width="3" height="1"/><rect class="cls-4" x="64.5" y="19.5" width="15" height="11" rx="1" ry="1"/><path class="cls-4" d="M66.5,17.5h3a1,1,0,0,1,1,1v1a0,0,0,0,1,0,0h-5a0,0,0,0,1,0,0v-1A1,1,0,0,1,66.5,17.5Z"/><polygon class="cls-5" points="77.5 15.5 66.5 15.5 66.5 0.5 74 0.5 77.5 4.5 77.5 15.5"/><rect class="cls-6" x="73" y="1" width="1" height="5"/><rect class="cls-6" x="74" y="5" width="3" height="1"/><circle class="cls-5" cx="8" cy="56" r="6.5"/><circle class="cls-5" cx="24" cy="56" r="6.5"/><circle class="cls-8" cx="40" cy="56" r="6.5"/><circle class="cls-1" cx="40" cy="56" r="3"/><circle class="cls-8" cx="56" cy="56" r="6.5"/><circle class="cls-1" cx="56" cy="56" r="3"/><circle class="cls-5" cx="72" cy="56" r="6.5"/><circle class="cls-1" cx="72" cy="56" r="3"/><circle class="cls-5" cx="88" cy="56" r="6.5"/><circle class="cls-1" cx="88" cy="56" r="3"/><rect class="cls-6" x="5" y="65" width="1" height="1"/><rect class="cls-6" x="5" y="67" width="1" height="1"/><rect class="cls-6" x="5" y="69" width="1" height="1"/><rect class="cls-6" x="5" y="71" width="1" height="1"/><rect class="cls-6" x="7" y="71" width="1" height="1"/><rect class="cls-6" x="9" y="71" width="1" height="1"/><rect class="cls-6" x="11" y="71" width="1" height="1"/><rect class="cls-6" x="13" y="71" width="1" height="1"/><rect class="cls-6" x="15" y="71" width="1" height="1"/><rect class="cls-6" x="5" y="73" width="1" height="1"/><rect class="cls-6" x="5" y="75" width="1" height="1"/><rect class="cls-6" x="5" y="77" width="1" height="1"/><rect class="cls-6" x="5" y="79" width="1" height="1"/><rect class="cls-6" x="85" y="65" width="1" height="1"/><rect class="cls-6" x="85" y="67" width="1" height="1"/><rect class="cls-6" x="85" y="69" width="1" height="1"/><rect class="cls-6" x="85" y="71" width="1" height="1"/><rect class="cls-6" x="85" y="73" width="1" height="1"/><rect class="cls-6" x="85" y="75" width="1" height="1"/><rect class="cls-6" x="85" y="77" width="1" height="1"/><rect class="cls-6" x="85" y="79" width="1" height="1"/><rect class="cls-6" x="21" y="65" width="1" height="1"/><rect class="cls-6" x="21" y="67" width="1" height="1"/><rect class="cls-6" x="21" y="69" width="1" height="1"/><rect class="cls-6" x="21" y="71" width="1" height="1"/><rect class="cls-6" x="23" y="71" width="1" height="1"/><rect class="cls-6" x="25" y="71" width="1" height="1"/><rect class="cls-6" x="27" y="71" width="1" height="1"/><rect class="cls-6" x="29" y="71" width="1" height="1"/><rect class="cls-6" x="31" y="71" width="1" height="1"/><polygon points="13 89 7 93 7 84 13 88 13 89"/><polygon points="29 89 23 93 23 84 29 88 29 89"/><polygon class="cls-6" points="77 89 71 93 71 84 77 88 77 89"/><polygon class="cls-6" points="93 89 87 93 87 84 93 88 93 89"/><polygon points="40 91 36 85 45 85 41 91 40 91"/><polygon points="56 91 52 85 61 85 57 91 56 91"/><polygon points="13 104 7 108 7 99 13 103 13 104"/><polygon points="29 104 23 108 23 99 29 103 29 104"/><polygon points="27 152 24 154 24 149 27 151 27 152"/><path class="cls-9" d="M17,133.08l3,2.4v0l-3,2.4v-4.84M16,131v9l5-4v-1l-5-4Z"/><path class="cls-9" d="M49,133.08l3,2.4v0l-3,2.4v-4.84M48,131v9l5-4v-1l-5-4Z"/><path class="cls-9" d="M81,133.08l3,2.4v0l-3,2.4v-4.84M80,131v9l5-4v-1l-5-4Z"/><path class="cls-9" d="M17,149.08l3,2.4v0l-3,2.4v-4.84M16,147v9l5-4v-1l-5-4Z"/><polygon class="cls-6" points="77 104 71 108 71 99 77 103 77 104"/><polygon class="cls-6" points="93 104 87 108 87 99 93 103 93 104"/><polygon points="40 106 36 100 45 100 41 106 40 106"/><polygon points="56 106 52 100 61 100 57 106 56 106"/><circle class="cls-10" cx="8" cy="124" r="2"/><circle class="cls-10" cx="8" cy="115" r="2"/><circle class="cls-10" cx="8" cy="120" r="1"/><polygon class="cls-10" points="9 120 7 120 6 116 10 116 9 120"/><circle class="cls-11" cx="23.5" cy="119.5" r="6.5"/><line class="cls-11" x1="19" y1="124" x2="28.5" y2="114.5"/><polygon class="cls-9" points="39 123 36 121 36 118 39 120 39 123"/><polygon class="cls-9" points="38 123 43 119 43 116 38 120 38 123"/><line class="cls-12" x1="2.5" y1="135.5" x2="8.5" y2="135.5"/><line class="cls-12" x1="35.5" y1="135.5" x2="43.5" y2="135.5"/><line class="cls-12" x1="67.5" y1="135.5" x2="75.5" y2="135.5"/><line class="cls-12" x1="71.5" y1="131.5" x2="71.5" y2="139.5"/><polyline class="cls-12" points="7.5 131.5 10.5 135.5 7.5 139.5"/><line class="cls-12" x1="2.5" y1="151.5" x2="8.5" y2="151.5"/><polyline class="cls-12" points="7.5 147.5 10.5 151.5 7.5 155.5"/><rect x="27" y="151" width="30" height="1"/><rect x="58" y="151" width="1" height="1"/><rect x="60" y="151" width="1" height="1"/><rect x="62" y="151" width="1" height="1"/><rect class="cls-9" x="17" y="163" width="6" height="2"/><rect class="cls-9" x="19" y="161" width="2" height="6"/><line class="cls-13" x1="11" y1="161.5" x2="14.5" y2="164.5"/><rect class="cls-14" x="10" y="162" width="1" height="4"/><rect class="cls-14" x="11" y="165" width="3" height="1"/><rect class="cls-9" x="1" y="163" width="6" height="2"/><rect class="cls-9" x="3" y="161" width="2" height="6"/><rect class="cls-14" x="8" y="161" width="3" height="1"/><rect class="cls-14" x="14" y="165" width="1" height="10"/><rect class="cls-14" x="1" y="174" width="14" height="1"/><rect class="cls-14" x="1" y="168" width="1" height="7"/><line class="cls-13" x1="27" y1="161.5" x2="30.5" y2="164.5"/><rect class="cls-14" x="26" y="162" width="1" height="4"/><rect class="cls-14" x="27" y="165" width="3" height="1"/><rect class="cls-9" x="17" y="163" width="6" height="2"/><rect class="cls-9" x="19" y="161" width="2" height="6"/><rect class="cls-14" x="24" y="161" width="3" height="1"/><rect class="cls-14" x="30" y="165" width="1" height="10"/><rect class="cls-14" x="17" y="174" width="14" height="1"/><rect class="cls-14" x="17" y="168" width="1" height="7"/><rect class="cls-15" x="38.5" y="162.5" width="9" height="12"/><polygon class="cls-7" points="39.5 175.5 34.5 174.5 34.5 161.5 39.5 162.5 39.5 175.5"/><rect class="cls-6" x="41" y="164" width="5" height="1"/><rect class="cls-6" x="41" y="166" width="2" height="1"/><rect class="cls-6" x="41" y="168" width="5" height="1"/><rect class="cls-6" x="41" y="170" width="5" height="1"/><rect class="cls-6" x="41" y="172" width="5" height="1"/><circle class="cls-1" cx="44.5" cy="166.5" r="1"/><rect class="cls-7" x="51.5" y="160.5" width="10" height="13"/><rect class="cls-15" x="54.5" y="162.5" width="9" height="12"/><polygon class="cls-15" points="66.5 175.5 77.5 175.5 77.5 164.5 73.5 160.5 66.5 160.5 66.5 175.5"/><polygon class="cls-7" points="55.5 175.5 50.5 174.5 50.5 161.5 55.5 162.5 55.5 175.5"/><rect class="cls-6" x="57" y="164" width="5" height="1"/><rect class="cls-6" x="57" y="166" width="2" height="1"/><rect class="cls-6" x="57" y="168" width="5" height="1"/><rect class="cls-6" x="57" y="170" width="5" height="1"/><rect class="cls-6" x="57" y="172" width="5" height="1"/><circle class="cls-1" cx="60.5" cy="166.5" r="1"/><circle class="cls-1" cx="72" cy="168" r="3.5"/><path class="cls-6" d="M72,165a3,3,0,1,1-3,3,3,3,0,0,1,3-3m0-1a4,4,0,1,0,4,4,4,4,0,0,0-4-4Z"/><polygon class="cls-3" points="74 167 71 167 71 161 72 161 74 163 74 167"/><polygon class="cls-3" points="72 167 77 167 77 166 75 164 72 164 72 167"/><rect class="cls-6" x="72" y="161" width="1" height="4"/><rect class="cls-6" x="72" y="165" width="5" height="1"/><polygon class="cls-15" points="82.5 175.5 93.5 175.5 93.5 164.5 89.5 160.5 82.5 160.5 82.5 175.5"/><circle class="cls-1" cx="88" cy="168" r="3.5"/><path class="cls-6" d="M88,165a3,3,0,1,1-3,3,3,3,0,0,1,3-3m0-1a4,4,0,1,0,4,4,4,4,0,0,0-4-4Z"/><polygon class="cls-3" points="90 167 87 167 87 161 88 161 90 163 90 167"/><polygon class="cls-3" points="88 167 93 167 93 166 91 164 88 164 88 167"/><rect class="cls-6" x="88" y="161" width="1" height="4"/><rect class="cls-6" x="88" y="165" width="5" height="1"/><rect class="cls-3" x="37.66" y="38.59" width="1.5" height="4" transform="translate(-17.45 39.05) rotate(-45)"/><rect class="cls-3" x="38.74" y="38.78" width="5" height="1.5" transform="translate(-15.87 40.74) rotate(-45)"/><rect class="cls-3" x="53.66" y="38.59" width="1.5" height="4" transform="translate(-12.77 50.36) rotate(-45)"/><rect class="cls-3" x="54.74" y="38.78" width="5" height="1.5" transform="translate(-11.19 52.05) rotate(-45)"/></svg>